<?xml version="1.0" encoding="iso-8859-1"?>
<!-- Generator: Adobe Illustrator 19.0.0, SVG Export Plug-In . SVG Version: 6.00 Build 0)  -->
<svg version="1.1" id="Layer_1" xmlns="http://www.w3.org/2000/svg" xmlns:xlink="http://www.w3.org/1999/xlink" x="0px" y="0px"
	 viewBox="0 0 512 512" style="enable-background:new 0 0 512 512;" xml:space="preserve">
<path style="fill:#B3404A;" d="M256,288.24c-68.519,0-124.264-55.744-124.264-124.264V107.12c0-8.208,6.653-14.861,14.861-14.861
	c8.208,0,14.861,6.653,14.861,14.861v56.857c0,52.129,42.412,94.541,94.541,94.541s94.541-42.412,94.541-94.541
	c0-8.208,6.653-14.861,14.861-14.861c8.208,0,14.861,6.653,14.861,14.861C380.264,232.495,324.519,288.24,256,288.24z"/>
<path style="fill:#F4B2B0;" d="M365.402,107.12H146.598c0,0,0-42.777,0-61.911c0-40.462,218.805-40.462,218.805,0
	C365.402,64.341,365.402,107.12,365.402,107.12z"/>
<path style="fill:#B3404A;" d="M365.402,121.981H146.598c-8.208,0-14.861-6.653-14.861-14.861V45.207C131.736,4.405,218.637,0,256,0
	s124.264,4.405,124.264,45.207v61.913C380.264,115.328,373.61,121.981,365.402,121.981z M161.459,92.258h189.08V46.331
	c-5.265-6.069-36.943-16.608-94.539-16.608s-89.274,10.538-94.541,16.608L161.459,92.258L161.459,92.258z"/>
<path style="fill:#F4B2B0;" d="M319.904,326.235H192.096c-38.576,0-69.849,31.273-69.849,69.849v101.055h267.506V396.084
	C389.753,357.507,358.48,326.235,319.904,326.235z M337.736,437.943H265.41v-50.281h72.326L337.736,437.943L337.736,437.943z"/>
<path style="fill:#B3404A;" d="M389.753,512H122.247c-8.208,0-14.861-6.653-14.861-14.861V396.084
	c0-46.709,38.001-84.71,84.71-84.71h127.808c46.709,0,84.71,38.001,84.71,84.71v101.055C404.614,505.347,397.961,512,389.753,512z
	 M137.109,482.277h237.783v-86.193c0-30.32-24.667-54.987-54.987-54.987H192.096c-30.32,0-54.987,24.667-54.987,54.987
	L137.109,482.277L137.109,482.277z M337.736,452.804H265.41c-8.208,0-14.861-6.653-14.861-14.861v-50.281
	c0-8.208,6.653-14.861,14.861-14.861h72.326c8.208,0,14.861,6.653,14.861,14.861v50.281
	C352.598,446.15,345.944,452.804,337.736,452.804z M280.273,423.081h42.603v-20.558h-42.603V423.081z"/>
<g>
</g>
<g>
</g>
<g>
</g>
<g>
</g>
<g>
</g>
<g>
</g>
<g>
</g>
<g>
</g>
<g>
</g>
<g>
</g>
<g>
</g>
<g>
</g>
<g>
</g>
<g>
</g>
<g>
</g>
</svg>
